HIERARCHY
ROOT Hips
{
	OFFSET 0.000000 0.000000 0.000000
	CHANNELS 6 Xposition Yposition Zposition Zrotation Xrotation Yrotation
	JOINT Spine1
	{
		OFFSET 0.000000 1.277396 0.000001
		CHANNELS 6 Xposition Yposition Zposition Zrotation Xrotation Yrotation
		JOINT Neck
		{
			OFFSET 0.000000 1.018385 0.000001
			CHANNELS 6 Xposition Yposition Zposition Zrotation Xrotation Yrotation
			JOINT Head
			{
				OFFSET 0.000000 0.647533 0.083553
				CHANNELS 6 Xposition Yposition Zposition Zrotation Xrotation Yrotation
				End Site
				{
					OFFSET 0.000000 0.835523 0.000001
				}
			}
		}
		JOINT LeftShoulder
		{
			OFFSET 0.168253 0.822291 -0.022085
			CHANNELS 6 Xposition Yposition Zposition Zrotation Xrotation Yrotation
			JOINT LeftArm
			{
				OFFSET 0.600374 0.000000 0.000000
				CHANNELS 6 Xposition Yposition Zposition Zrotation Xrotation Yrotation
				JOINT LeftForeArm
				{
					OFFSET 1.177236 0.000000 0.000000
					CHANNELS 6 Xposition Yposition Zposition Zrotation Xrotation Yrotation
					JOINT LeftHand
					{
						OFFSET 1.094087 0.000000 0.000000
						CHANNELS 6 Xposition Yposition Zposition Zrotation Xrotation Yrotation
						End Site
						{
							OFFSET 0.626643 0.000000 0.000000
						}
					}
				}
			}
		}
		JOINT RightShoulder
		{
			OFFSET -0.165932 0.822291 -0.022085
			CHANNELS 6 Xposition Yposition Zposition Zrotation Xrotation Yrotation
			JOINT RightArm
			{
				OFFSET -0.600374 0.000000 0.000000
				CHANNELS 6 Xposition Yposition Zposition Zrotation Xrotation Yrotation
				JOINT RightForeArm
				{
					OFFSET -1.177236 0.000000 0.000000
					CHANNELS 6 Xposition Yposition Zposition Zrotation Xrotation Yrotation
					JOINT RightHand
					{
						OFFSET -1.094088 0.000000 0.000000
						CHANNELS 6 Xposition Yposition Zposition Zrotation Xrotation Yrotation
						End Site
						{
							OFFSET -0.626643 0.000000 0.000000
						}
					}
				}
			}
		}
	}
	JOINT LeftUpLeg
	{
		OFFSET 0.417763 0.000000 0.000000
		CHANNELS 6 Xposition Yposition Zposition Zrotation Xrotation Yrotation
		JOINT LeftLeg
		{
			OFFSET 0.000000 -1.756965 -0.000001
			CHANNELS 6 Xposition Yposition Zposition Zrotation Xrotation Yrotation
			JOINT LeftFoot
			{
				OFFSET 0.000000 -1.841978 -0.000001
				CHANNELS 6 Xposition Yposition Zposition Zrotation Xrotation Yrotation
				JOINT LeftToeBase
				{
					OFFSET 0.000000 -0.271546 0.626644
					CHANNELS 6 Xposition Yposition Zposition Zrotation Xrotation Yrotation
					End Site
					{
						OFFSET 0.000000 0.000000 0.167105
					}
				}
			}
		}
	}
	JOINT RightUpLeg
	{
		OFFSET -0.417763 0.000000 0.000000
		CHANNELS 6 Xposition Yposition Zposition Zrotation Xrotation Yrotation
		JOINT RightLeg
		{
			OFFSET 0.000000 -1.756965 -0.000001
			CHANNELS 6 Xposition Yposition Zposition Zrotation Xrotation Yrotation
			JOINT RightFoot
			{
				OFFSET 0.000000 -1.841978 -0.000001
				CHANNELS 6 Xposition Yposition Zposition Zrotation Xrotation Yrotation
				JOINT RightToeBase
				{
					OFFSET 0.000000 -0.271546 0.626644
					CHANNELS 6 Xposition Yposition Zposition Zrotation Xrotation Yrotation
					End Site
					{
						OFFSET 0.000000 0.000000 0.167105
					}
				}
			}
		}
	}
}
MOTION
Frames: 7
Frame Time: 0.016667
-0.329607 3.304167 0.603280 1.314477 16.834425 -0.975737 0.000000 1.277395 0.000002 3.894676 -14.288751 -3.288375 -0.000000 1.018385 0.000001 2.823477 5.533613 3.778433 -0.000000 0.647533 0.083553 -4.774710 1.981065 5.113859 0.168252 0.822291 -0.022085 22.226795 -6.273536 2.739631 0.600374 0.000002 0.000000 -10.161441 -8.947707 -9.973471 1.177236 0.000000 -0.000000 -0.396387 -9.994265 0.122503 1.094087 -0.000000 0.000000 3.271438 -9.503235 17.299756 -0.165932 0.822291 -0.022085 -16.564443 0.745819 -7.597317 -0.600373 0.000002 0.000000 6.743406 15.916825 16.614951 -1.177236 -0.000000 0.000000 -45.834230 -36.343580 85.037153 -1.094088 0.000001 -0.000001 -34.683400 5.811159 6.351993 0.417763 -0.000001 0.000000 35.541777 -28.022369 31.782253 -0.000001 -1.756965 -0.000001 -22.262284 37.186753 22.638303 -0.000001 -1.841978 -0.000001 -5.403330 -6.027548 18.024125 -0.000000 -0.271546 0.626644 0.000004 -0.000004 -0.000000 -0.417763 0.000000 -0.000000 -38.991996 -28.244818 -10.484851 0.000000 -1.756966 -0.000001 40.858120 26.571386 -34.432893 0.000000 -1.841978 -0.000001 6.049055 -17.682419 -23.525948 0.000000 -0.271546 0.626644 -0.000000 0.000002 0.000007 
-0.329647 3.303978 0.603304 1.310561 16.836360 -0.970085 0.000000 1.277395 0.000001 3.889053 -14.285033 -3.290992 0.000000 1.018386 0.000001 2.822450 5.540742 3.782593 0.000000 0.647533 0.083553 -4.754745 1.964620 5.114565 0.168253 0.822293 -0.022085 22.232252 -6.268605 2.738357 0.600374 0.000000 0.000000 -10.170772 -8.927851 -9.966651 1.177236 0.000002 -0.000000 -0.388811 -10.005583 0.107984 1.094086 0.000001 0.000001 3.255974 -9.516672 17.309192 -0.165931 0.822291 -0.022085 -16.561421 0.738853 -7.597954 -0.600374 -0.000000 0.000000 6.774063 15.857935 16.611508 -1.177236 -0.000001 0.000001 -45.771922 -36.305963 85.106104 -1.094088 0.000000 -0.000000 -34.663360 5.833312 6.381669 0.417763 -0.000000 -0.000000 35.544202 -28.032158 31.776396 0.000000 -1.756965 -0.000001 -22.256489 37.199573 22.634023 0.000000 -1.841978 -0.000001 -5.422515 -6.047559 18.017974 -0.000000 -0.271546 0.626644 0.000004 -0.000002 -0.000004 -0.417763 -0.000000 -0.000000 -38.986450 -28.246830 -10.532833 -0.000000 -1.756965 -0.000001 40.832975 26.613456 -34.403014 0.000000 -1.841978 -0.000002 6.046549 -17.697208 -23.499112 0.000000 -0.271546 0.626644 -0.000000 0.000003 0.000001 
-0.329762 3.303938 0.603199 1.304896 16.840489 -0.969728 0.000000 1.277394 0.000001 3.893725 -14.283800 -3.294159 -0.000000 1.018386 0.000001 2.749785 5.574327 3.790199 0.000000 0.647532 0.083552 -4.623992 1.892915 5.088111 0.168252 0.822293 -0.022085 22.227556 -6.275888 2.731607 0.600374 0.000002 -0.000000 -10.181366 -8.868231 -9.943898 1.177237 0.000002 -0.000001 -0.371036 -10.066060 0.079708 1.094086 -0.000002 -0.000001 3.317154 -9.568094 17.311097 -0.165932 0.822291 -0.022085 -16.592158 0.726562 -7.585957 -0.600373 0.000001 0.000000 6.841311 15.825704 16.595365 -1.177237 -0.000001 0.000001 -45.731842 -36.275678 85.158327 -1.094088 -0.000001 0.000000 -34.668596 5.862786 6.395500 0.417763 -0.000001 0.000000 35.554270 -28.040107 31.775946 0.000000 -1.756965 -0.000001 -22.258413 37.201786 22.649684 -0.000001 -1.841979 -0.000001 -5.447412 -6.068077 18.006172 -0.000000 -0.271546 0.626644 0.000000 -0.000005 0.000002 -0.417763 -0.000002 0.000000 -38.992286 -28.249393 -10.505940 0.000000 -1.756966 -0.000001 40.869946 26.580569 -34.426141 0.000000 -1.841978 -0.000001 5.990578 -17.684564 -23.537032 0.000000 -0.271546 0.626643 0.000001 -0.000008 -0.000009 
-0.329992 3.303886 0.603131 1.296548 16.842803 -0.961402 -0.000000 1.277394 0.000001 3.898880 -14.285701 -3.304619 -0.000000 1.018385 0.000001 2.736865 5.588358 3.794938 0.000000 0.647533 0.083553 -4.602117 1.879347 5.087269 0.168252 0.822292 -0.022085 22.222871 -6.272599 2.731603 0.600374 -0.000000 0.000000 -10.191722 -8.822368 -9.944960 1.177236 -0.000001 -0.000000 -0.359604 -10.104164 0.074190 1.094087 -0.000000 -0.000000 3.342068 -9.601848 17.334306 -0.165932 0.822292 -0.022085 -16.574801 0.738443 -7.588741 -0.600374 0.000001 0.000000 6.816490 15.820820 16.609159 -1.177236 -0.000000 0.000000 -45.750844 -36.285783 85.124347 -1.094088 0.000000 -0.000000 -34.660427 5.846190 6.388677 0.417763 -0.000001 -0.000000 35.565106 -28.049046 31.764655 0.000000 -1.756965 -0.000001 -22.263003 37.203928 22.653178 0.000000 -1.841978 -0.000001 -5.407776 -6.041869 18.024526 -0.000000 -0.271546 0.626644 0.000002 -0.000001 -0.000012 -0.417763 -0.000001 -0.000000 -38.990569 -28.242277 -10.522627 0.000000 -1.756966 -0.000001 40.884621 26.569405 -34.431472 0.000001 -1.841979 -0.000002 6.022402 -17.700085 -23.536542 -0.000000 -0.271546 0.626644 0.000001 0.000002 0.000007 
-0.330121 3.303812 0.603086 1.288780 16.849337 -0.958310 0.000000 1.277394 0.000001 3.909346 -14.293776 -3.314543 -0.000000 1.018384 0.000001 2.805989 5.572054 3.785819 -0.000000 0.647533 0.083553 -4.739642 1.935692 5.112303 0.168253 0.822292 -0.022085 22.210839 -6.284834 2.720724 0.600373 -0.000001 0.000000 -10.196154 -8.793992 -9.926837 1.177236 -0.000001 -0.000000 -0.354013 -10.131367 0.066647 1.094086 0.000000 -0.000000 3.339895 -9.629302 17.339613 -0.165932 0.822291 -0.022085 -16.606082 0.717025 -7.568930 -0.600374 -0.000000 0.000000 6.854321 15.867680 16.587750 -1.177236 0.000001 0.000000 -45.789397 -36.301906 85.085565 -1.094088 0.000001 -0.000001 -34.645711 5.842230 6.384156 0.417763 -0.000001 -0.000000 35.578916 -28.061680 31.757098 -0.000000 -1.756965 -0.000001 -22.267829 37.210611 22.678376 -0.000000 -1.841978 -0.000001 -5.449552 -6.063380 18.001175 0.000000 -0.271547 0.626644 0.000001 -0.000003 -0.000004 -0.417763 -0.000001 -0.000000 -38.991600 -28.253392 -10.535339 0.000001 -1.756965 -0.000000 40.897677 26.590707 -34.393725 0.000001 -1.841978 -0.000001 6.029054 -17.702614 -23.562406 0.000000 -0.271545 0.626644 -0.000004 -0.000001 -0.000005 
-0.330328 3.303746 0.603058 1.278131 16.851876 -0.963798 -0.000000 1.277395 0.000001 3.912282 -14.302204 -3.304379 -0.000000 1.018386 0.000000 2.731744 5.609493 3.796867 -0.000000 0.647534 0.083553 -4.577171 1.886781 5.085504 0.168253 0.822293 -0.022085 22.212549 -6.295492 2.714166 0.600374 0.000002 -0.000000 -10.210483 -8.815986 -9.929040 1.177236 -0.000000 0.000000 -0.354290 -10.128100 0.071471 1.094088 -0.000001 -0.000000 3.359297 -9.622192 17.370216 -0.165932 0.822293 -0.022085 -16.571816 0.730280 -7.566966 -0.600373 0.000000 -0.000000 6.821032 15.876351 16.596462 -1.177235 -0.000000 0.000000 -45.826707 -36.315224 85.034182 -1.094088 -0.000000 -0.000001 -34.660987 5.824999 6.385291 0.417763 -0.000000 -0.000000 35.599810 -28.058890 31.757528 0.000000 -1.756965 -0.000002 -22.274509 37.215180 22.660478 0.000000 -1.841979 -0.000001 -5.456822 -6.070687 18.021842 0.000000 -0.271545 0.626644 0.000000 0.000001 0.000001 -0.417763 -0.000000 0.000000 -38.971704 -28.257910 -10.507498 -0.000001 -1.756966 -0.000001 40.899367 26.567330 -34.404260 0.000000 -1.841978 -0.000001 6.021471 -17.707563 -23.571022 0.000000 -0.271547 0.626644 0.000000 -0.000001 0.000004 
-0.330550 3.303647 0.603095 1.271232 16.851945 -0.960543 -0.000000 1.277394 0.000001 3.924519 -14.310939 -3.310011 -0.000000 1.018385 0.000001 2.782830 5.588579 3.788411 -0.000000 0.647532 0.083553 -4.682230 1.968597 5.104124 0.168253 0.822291 -0.022085 22.187933 -6.299060 2.716044 0.600374 0.000000 -0.000000 -10.226744 -8.927675 -9.958685 1.177236 -0.000001 -0.000000 -0.356397 -10.089333 0.095550 1.094087 -0.000000 0.000001 3.335076 -9.586981 17.368872 -0.165932 0.822290 -0.022085 -16.606135 0.710346 -7.546890 -0.600373 -0.000000 -0.000000 6.854292 15.955054 16.569144 -1.177236 -0.000001 0.000000 -45.907426 -36.350700 84.955191 -1.094087 -0.000000 -0.000001 -34.655229 5.810101 6.390658 0.417763 -0.000001 0.000000 35.609324 -28.061720 31.751340 -0.000000 -1.756966 -0.000002 -22.279952 37.213483 22.682387 -0.000000 -1.841978 -0.000001 -5.427522 -6.047069 18.026876 -0.000000 -0.271546 0.626644 0.000005 -0.000000 -0.000002 -0.417763 -0.000001 0.000000 -38.965782 -28.260801 -10.533109 -0.000000 -1.756966 -0.000001 40.897414 26.591916 -34.387113 -0.000000 -1.841977 -0.000002 6.014301 -17.709028 -23.563920 -0.000000 -0.271546 0.626645 -0.000001 -0.000001 0.000004 
